<svg xmlns="http://www.w3.org/2000/svg" width="24" height="40" viewBox="0 0 24 40"><defs><style>.a,.c{fill:#f8f8f8;}.a{stroke:#a2a2a2;stroke-linejoin:round;}.a,.c,.d{fill-rule:evenodd;}.b{fill:#c7f2ec;}.d{fill:#a2a2a2;}</style></defs><g transform="translate(0.5 0.5)"><path class="a" d="M.5-28A11.505,11.505,0,0,1,12-39.5,11.505,11.505,0,0,1,23.5-28v16A11.505,11.505,0,0,1,12-.5,11.505,11.505,0,0,1,.5-12Z" transform="translate(-0.5 39.5)"/><path class="b" d="M23-39A11.005,11.005,0,0,0,12-28v8h5a6.029,6.029,0,0,0,6-6Z" transform="translate(-11.5 39.5)"/><path class="c" d="M10-30a2,2,0,0,1,2-2,2,2,0,0,1,2,2v5a2,2,0,0,1-2,2,2,2,0,0,1-2-2Z" transform="translate(-0.5 39.5)"/><path class="d" d="M10-30a2,2,0,0,1,2-2,2,2,0,0,1,2,2v5a2,2,0,0,1-2,2,2,2,0,0,1-2-2Zm1,0v5a1,1,0,0,0,1,1,1,1,0,0,0,1-1v-5a1,1,0,0,0-1-1A1,1,0,0,0,11-30Z" transform="translate(-0.5 39.5)"/></g></svg>